<?xml version="1.0" encoding="utf-8"?>
<!-- Generator: Adobe Illustrator 16.0.0, SVG Export Plug-In . SVG Version: 6.00 Build 0)  -->
<!DOCTYPE svg PUBLIC "-//W3C//DTD SVG 1.1//EN" "http://www.w3.org/Graphics/SVG/1.1/DTD/svg11.dtd">
<svg version="1.1" id="Layer_1" xmlns="http://www.w3.org/2000/svg" xmlns:xlink="http://www.w3.org/1999/xlink" x="0px" y="0px"
	 width="1024px" height="1024px" viewBox="0 0 1024 1024" enable-background="new 0 0 1024 1024" xml:space="preserve">
<g id="facebook">
	<path id="White_3_" fill="#010202" d="M967.556,0H56.667C25.278,0,0,39.889,0,71.111v910.944C0,1013.333,25.278,1024,56.667,1024
		h512.222V625.777H455.111V455.111h113.776v-81.556c0-131.389,0-245.167,113.778-245.167c56.556,0,213.222-1.889,227.556,0v156.056
		h-94.056c-64.111,0-76.611,59.611-76.611,104.389v66.278h170.667l-56.89,170.666H739.556V1024h228
		c31.167,0,56.444-10.667,56.444-41.944V71.111C1024,39.889,998.723,0,967.556,0z"/>
</g>
</svg>
