<?xml version="1.0" encoding="utf-8"?>
<!-- Generator: Adobe Illustrator 16.0.0, SVG Export Plug-In . SVG Version: 6.00 Build 0)  -->
<!DOCTYPE svg PUBLIC "-//W3C//DTD SVG 1.1//EN" "http://www.w3.org/Graphics/SVG/1.1/DTD/svg11.dtd">
<svg version="1.1" id="Layer_1" xmlns="http://www.w3.org/2000/svg" xmlns:xlink="http://www.w3.org/1999/xlink" x="0px" y="0px"
	 width="1024px" height="1024px" viewBox="0 0 1024 1024" enable-background="new 0 0 1024 1024" xml:space="preserve">
<g id="permalink">
	<path fill="#010202" d="M776.255,545.334l205.301-205.243c56.583-56.583,56.583-148.66,0-205.244L889.196,42.43
		c-56.641-56.583-148.659-56.583-205.3,0l-205.244,205.3c-52.219,52.162-55.678,134.203-11.566,191.126l-28.235,28.234
		c-56.924-44.109-138.963-40.651-191.125,11.566l-205.3,205.244c-56.583,56.584-56.583,148.659,0.057,205.242l92.36,92.417
		c56.583,56.584,148.603,56.584,205.244,0L545.329,776.26c52.219-52.218,55.677-134.202,11.565-191.126l28.235-28.234
		C642.053,601.011,724.094,597.553,776.255,545.334z M519.7,288.78l205.244-205.3c33.961-33.905,89.185-33.905,123.202,0
		l92.359,92.417c33.961,33.905,33.961,89.185,0,123.146l-205.3,205.243c-29.539,29.54-75.181,33.338-108.972,11.453L759.02,382.954
		c33.679-33.622,34.473-87.257,1.87-119.858c-32.601-32.601-86.235-31.75-119.914,1.871L508.191,397.752
		C486.306,364.017,490.161,318.319,519.7,288.78z M504.279,735.213L299.035,940.514c-33.961,33.904-89.185,33.904-123.146,0
		l-92.36-92.416c-34.018-33.904-34.018-89.186,0-123.146l205.244-205.244c29.54-29.596,75.18-33.337,108.972-11.453l-148.207,148.15
		c-33.565,33.62-34.415,87.257-1.814,119.856c32.601,32.603,86.292,31.751,119.858-1.813l148.206-148.206
		C537.674,659.977,533.818,705.674,504.279,735.213z"/>
</g>
</svg>
