<?xml version="1.0" encoding="iso-8859-1"?>
<!-- Generator: Adobe Illustrator 16.0.0, SVG Export Plug-In . SVG Version: 6.00 Build 0)  -->
<!DOCTYPE svg PUBLIC "-//W3C//DTD SVG 1.1//EN" "http://www.w3.org/Graphics/SVG/1.1/DTD/svg11.dtd">
<svg version="1.1" id="Layer_1" xmlns="http://www.w3.org/2000/svg" xmlns:xlink="http://www.w3.org/1999/xlink" x="0px" y="0px"
	 width="15.5px" height="15.5px" viewBox="0 0 15.5 15.5" style="enable-background:new 0 0 15.5 15.5;" xml:space="preserve">
<g>
	<path d="M11,6c0.007-0.007,3.99-2.991,4-3c-0.013-0.012-3.975-2.977-4-3c0,0.736,0,1.346,0,2C9.331,2,8.356,2,9.727,2
		C7.84,2,5.887,1.992,4,2C2,2,0,4.938,0,7c0,1.125,0.018,0.32,0.001,1.441C0,8.555,0.001,8.824,0.001,9C0.03,8.971,1.963,7.031,2,7
		c0,0,0-0.309,0-1c0-1,1-2,2-2c1.84,0,3.581,0,5.42,0C9.547,4,10.846,4,11,4C11,4.672,11,5.291,11,6z"/>
	<g>
		<path d="M14.936,8.651C14.975,8.428,15,8.209,15,8c0-1.125-0.018-0.32-0.001-1.441c0.001-0.113,0-0.383,0-0.559
			C14.97,6.029,13.037,7.969,13,8c0,0,0,0.021,0,0.052C13.707,8.122,14.366,8.324,14.936,8.651z"/>
		<path d="M8,12.007c0-0.35,0.066-0.684,0.162-1.007c-0.967,0-1.934,0-2.855,0C5.18,11,4.154,11,4,11c0-0.672,0-1.291,0-2
			c-0.007,0.007-3.99,2.991-4,3c0.013,0.012,3.975,2.977,4,3c0-0.736,0-1.346,0-2c0.395,0,0.729,0,1,0
			c0.992,0,2.076,0.002,3.158,0.003C8.064,12.683,8,12.353,8,12.007z"/>
	</g>
	<path d="M12.785,9h-0.57C10.439,9,8,10.175,8,11.753v0.508C8,13.839,10.439,15,12.215,15h0.57C14.561,15,15,13.839,15,12.261
		v-0.508C15,10.175,14.561,9,12.785,9z M13,11.007h-1V13h1v1h-1h-1h-1v-1h1v-1.993v-1V10h1v0.007h1V11.007z"/>
</g>
</svg>
