<?xml version="1.0" encoding="utf-8"?>
<!-- Generator: Adobe Illustrator 18.0.0, SVG Export Plug-In . SVG Version: 6.00 Build 0)  -->
<!DOCTYPE svg PUBLIC "-//W3C//DTD SVG 1.1//EN" "http://www.w3.org/Graphics/SVG/1.1/DTD/svg11.dtd">
<svg version="1.1" id="Layer_1" xmlns="http://www.w3.org/2000/svg" xmlns:xlink="http://www.w3.org/1999/xlink" x="0px" y="0px"
	 viewBox="0 0 1024 1024" enable-background="new 0 0 1024 1024" xml:space="preserve">
<path fill="#010202" d="M512,0C229.7,0,0,229.7,0,512c0,0.3,0.1,0.6,0.1,0.9c57.2,13.3,115.4,26.7,173.5,35.3
	c5.3,0.8,10.6,1.5,15.9,2.3c-1.5-12.6-2.4-25.5-2.4-38.5c0-179.2,145.7-324.9,324.9-324.9c179.2,0,324.9,145.7,324.9,324.9
	S691.2,836.9,512,836.9c-63.6,0-122.9-18.4-173-50.1l79.5-89.6L8.8,615.4l9.1,28.2c-0.2,0-0.5-0.1-0.7-0.2
	c5.5,20.8,12.4,41.1,20.4,60.8l100.2,309.4l76-85.7c84,60.4,187,96.1,298.2,96.1c282.3,0,512-229.7,512-512S794.3,0,512,0z"/>
</svg>
