<?xml version="1.0" encoding="iso-8859-1"?>
<!-- Generator: Adobe Illustrator 16.0.0, SVG Export Plug-In . SVG Version: 6.00 Build 0)  -->
<!DOCTYPE svg PUBLIC "-//W3C//DTD SVG 1.1//EN" "http://www.w3.org/Graphics/SVG/1.1/DTD/svg11.dtd">
<svg version="1.1" id="Layer_1" xmlns="http://www.w3.org/2000/svg" xmlns:xlink="http://www.w3.org/1999/xlink" x="0px" y="0px"
	 width="11px" height="11px" viewBox="0.022 -0.061 11 11" style="enable-background:new 0.022 -0.061 11 11;" xml:space="preserve"
	>
<g id="tick_x5F_icon">
	<g id="tick_x5F_icon_2_">
		<path d="M11.022,0.285l-0.767-0.345C7.452,2.335,5.203,5.074,3.512,8.155L3.16,7.364C2.52,5.897,1.935,5.163,1.401,5.163
			c-0.394,0-0.854,0.243-1.379,0.73c0.389,0.04,0.749,0.302,1.083,0.785c0.333,0.485,0.743,1.333,1.229,2.553l0.214,0.562
			c0.207,0.528,0.337,0.908,0.389,1.146c0.266-0.243,0.583-0.487,0.952-0.73l0.427-0.287c0.563-1.573,1.446-3.223,2.648-4.95
			C8.168,3.243,9.52,1.681,11.022,0.285z"/>
	</g>
</g>
<g id="Layer_1_1_">
</g>
</svg>
