<?xml version="1.0" encoding="utf-8"?>
<!-- Generator: Adobe Illustrator 16.0.0, SVG Export Plug-In . SVG Version: 6.00 Build 0)  -->
<!DOCTYPE svg PUBLIC "-//W3C//DTD SVG 1.1//EN" "http://www.w3.org/Graphics/SVG/1.1/DTD/svg11.dtd">
<svg version="1.1" id="Layer_1" xmlns="http://www.w3.org/2000/svg" xmlns:xlink="http://www.w3.org/1999/xlink" x="0px" y="0px"
	 width="1024px" height="1024px" viewBox="0 0 1024 1024" enable-background="new 0 0 1024 1024" xml:space="preserve">
<g>
	<g>
		<polygon points="438.316,-0.044 438.316,56.573 375.699,56.573 375.699,113.186 313.083,113.186 313.083,169.802 250.466,169.802 
			250.466,226.417 0,226.417 0,509.495 250.466,509.495 250.466,566.11 313.083,566.11 313.083,622.724 375.699,622.724 
			375.699,679.341 438.316,679.341 438.316,735.956 500.933,735.956 500.933,-0.044 		"/>
	</g>
	<polygon points="1024,246.432 979.729,206.403 845.323,327.927 710.918,206.403 666.647,246.432 801.051,367.957 666.647,489.48 
		710.918,529.509 845.323,407.986 979.729,529.509 1024,489.48 889.595,367.957 	"/>
</g>
</svg>
