<?xml version="1.0" encoding="utf-8"?>
<!-- Generator: Adobe Illustrator 16.0.0, SVG Export Plug-In . SVG Version: 6.00 Build 0)  -->
<!DOCTYPE svg PUBLIC "-//W3C//DTD SVG 1.1//EN" "http://www.w3.org/Graphics/SVG/1.1/DTD/svg11.dtd">
<svg version="1.1" id="Layer_1" xmlns="http://www.w3.org/2000/svg" xmlns:xlink="http://www.w3.org/1999/xlink" x="0px" y="0px"
	 width="1024px" height="1024px" viewBox="0 0 1024 1024" enable-background="new 0 0 1024 1024" xml:space="preserve">
<g id="google">
	<g>
		<polygon fill="#010202" points="1024,142.162 873.153,142.162 873.153,0 814.072,0 814.072,142.162 669.515,142.162 
			669.515,208.824 814.072,208.824 814.072,354.486 873.153,354.486 873.153,208.824 1024,208.824 		"/>
		<g>
			<path fill="#010202" d="M524.755,542.863c-21.29-18-43.157-35.54-62.773-55.446c-24.001-24.29-22.732-48.868,0.75-73.851
				c1.27-1.327,2.364-2.597,3.75-3.75c19.616-17.31,39.579-34.214,59.081-51.869c33.291-30.406,56.656-66.928,63.466-112.219
				c6-40.734,6.347-82.044-2.481-122.143c-9.75-44.542-23.943-58.735-56.369-81.063c-1.327-0.923,77.082,1.903,77.082,1.903
				S639.858,0,640.205,0c-4.558,0-8.021,0-11.481,0c-86.545,0-173.089,0-259.69,0C304.932,0,244.12,0.115,187.231,29.656
				C137.959,55.273,99.821,78.64,78.358,130.913c-18.001,43.907-20.771,89.198-15,135.702c4.442,35.31,15.462,68.082,36.983,96.813
				c31.618,42.35,75.698,64.042,126.009,74.659c28.906,6.116,58.216,8.251,88.794,5.943c0,16.386-1.097,32.193-0.231,47.889
				c2.366,41.425,37.33,63.292,38.08,81.64c-9.692,0-18.693-0.229-27.811,0c-58.503,1.615-116.142,9.578-171.646,28.617
				c-41.483,14.078-79.736,33.927-109.508,66.986C0.873,717.338-7.263,774.285,5.488,835.268
				c12.116,58.275,48.926,97.972,100.738,124.625c52.734,27.232,109.738,37.851,168.416,40.158
				c66.466,2.652,131.778-3.809,194.667-26.656C562.66,939.238,624.8,878.195,638.07,775.496
				c6.924-54.234-2.136-104.777-33.639-150.473C582.566,593.117,554.062,567.674,524.755,542.863z M279.95,364.236
				c-43.272-29.425-68.543-72.236-82.218-121.624c-6.116-22.213-10.789-68.543-10.096-68.716c0-31.618,5.769-61.908,20.771-90.179
				c32.368-61.504,96.987-78.525,155.434-40.734c38.311,24.694,63.062,60.351,78.986,102.295
				c20.425,53.6,24.867,108.065,4.789,162.935c-9.866,26.829-25.502,50.022-50.715,64.677
				C356.224,396.488,316.933,389.45,279.95,364.236z M516.216,847.502c-33.521,40.385-77.833,62.945-128.144,74.139
				c-21.116,4.73-42.926,6.289-54.119,7.904c-63.062-0.924-112.623-12.578-156.068-43.85c-30.81-22.213-52.85-51.004-58.562-89.775
				c-6.289-42.926,9.636-78.582,38.657-108.93c37.502-39.234,84.929-59.369,137.49-67.853
				c54.752-8.828,107.949-3.229,158.607,20.193c22.731,10.502,42.926,24.521,59.658,43.272
				C557.41,731.531,558.449,796.555,516.216,847.502z"/>
		</g>
	</g>
</g>
</svg>
