<?xml version="1.0" encoding="iso-8859-1"?>
<!-- Generator: Adobe Illustrator 16.0.0, SVG Export Plug-In . SVG Version: 6.00 Build 0)  -->
<!DOCTYPE svg PUBLIC "-//W3C//DTD SVG 1.1//EN" "http://www.w3.org/Graphics/SVG/1.1/DTD/svg11.dtd">
<svg version="1.1" id="Layer_1" xmlns="http://www.w3.org/2000/svg" xmlns:xlink="http://www.w3.org/1999/xlink" x="0px" y="0px"
	 width="15px" height="15px" viewBox="0 0 15 15" style="enable-background:new 0 0 15 15;" xml:space="preserve">
<g id="playlist_x5F_loop_x5F_icon">
	<g id="_x2B_Playlist_Replay_Button">
		<path d="M11,6c0.006-0.007,3.99-2.991,4-3c-0.014-0.012-3.975-2.977-4-3c0,0.736,0,1.346,0,2C9.331,2,8.355,2,9.727,2
			C7.84,2,5.887,1.992,4,2C2,2,0,4.938,0,7c0,1.125,0.018,0.32,0.002,1.441C0,8.555,0.002,8.824,0.002,9C0.03,8.971,1.963,7.031,2,7
			c0,0,0-0.309,0-1c0-1,1-2,2-2c1.84,0,3.58,0,5.42,0C9.547,4,10.846,4,11,4C11,4.672,11,5.291,11,6z"/>
		<path d="M4,9c-0.006,0.007-3.99,2.991-4,3c0.013,0.012,3.975,2.977,4,3c0-0.736,0-1.346,0-2c1.668,0,2.37,0,1,0
			c1.887,0,4.113,0.008,6,0c2,0,4-2.938,4-5c0-1.125-0.018-0.32,0-1.441C15,6.445,15,6.176,15,6c-0.031,0.029-1.963,1.969-2,2
			c0,0,0,0.309,0,1c0,1-1,2-2,2c-1.84,0-3.854,0-5.693,0C5.18,11,4.155,11,4,11C4,10.328,4,9.709,4,9z"/>
	</g>
</g>
<g id="Layer_1_1_">
</g>
</svg>
