<?xml version="1.0" encoding="utf-8"?>
<!-- Generator: Adobe Illustrator 16.0.0, SVG Export Plug-In . SVG Version: 6.00 Build 0)  -->
<!DOCTYPE svg PUBLIC "-//W3C//DTD SVG 1.1//EN" "http://www.w3.org/Graphics/SVG/1.1/DTD/svg11.dtd">
<svg version="1.1" id="Layer_1" xmlns="http://www.w3.org/2000/svg" xmlns:xlink="http://www.w3.org/1999/xlink" x="0px" y="0px"
	 width="1024px" height="1024px" viewBox="0 0 1024 1024" enable-background="new 0 0 1024 1024" xml:space="preserve">
<g id="Layer_4">
	<path fill="#020304" d="M875.891,508.214c-0.729-43.702-9.563-85.211-24.305-123.799l117.817-104.406
		c-26.831-52.402-62.43-99.423-104.869-139.472l-132.366,84.945c-35.866-27.363-76.644-47.82-121.21-60.438L598.672,7.836
		C570.381,3.055,541.554,0,512.001,0c-29.624,0-58.513,3.055-86.74,7.836l-12.354,157.273
		c-44.498,12.621-85.345,33.075-121.142,60.44l-132.368-85.012c-42.372,40.115-77.972,87.138-104.803,139.472l117.821,104.406
		c-14.81,38.654-23.578,80.098-24.308,123.731L0,558.955c5.248,60.639,21.121,118.088,45.629,170.888l155.212-28.294
		c19.792,32.877,44.566,61.9,73.39,86.938l-55.855,147.579c48.617,33.936,103.475,59.308,162.32,74.848l76.843-137.679
		c17.866,2.655,35.798,5.445,54.463,5.445c18.662,0,36.593-2.79,54.462-5.445l76.84,137.679
		c58.849-15.54,113.704-40.912,162.322-74.848l-55.923-147.579c28.822-25.038,53.664-54.062,73.454-86.87l155.216,28.294
		c24.509-52.868,40.378-110.251,45.628-170.956L875.891,508.214z M512.001,673.854c-88.202,0-159.665-71.465-159.665-159.663
		c0-88.134,71.463-159.664,159.665-159.664c88.199,0,159.664,71.529,159.664,159.664C671.665,602.39,600.2,673.854,512.001,673.854z
		"/>
</g>
</svg>
