<?xml version="1.0" encoding="utf-8"?>
<!-- Generator: Adobe Illustrator 16.0.0, SVG Export Plug-In . SVG Version: 6.00 Build 0)  -->
<!DOCTYPE svg PUBLIC "-//W3C//DTD SVG 1.1//EN" "http://www.w3.org/Graphics/SVG/1.1/DTD/svg11.dtd">
<svg version="1.1" id="Layer_1" xmlns="http://www.w3.org/2000/svg" xmlns:xlink="http://www.w3.org/1999/xlink" x="0px" y="0px"
	 width="1024px" height="1024px" viewBox="0 0 1024 1024" enable-background="new 0 0 1024 1024" xml:space="preserve">
<g id="share">
	<path fill="#020304" d="M785.066,682.667c-45.467,0-86.531,18.066-117.132,47.064L337.867,546.332
		c2.269-11.066,3.466-22.599,3.466-34.332s-1.198-23.268-3.466-34.335l330.067-183.367c30.601,28.966,71.665,47.036,117.132,47.036
		c94.268,0,170.666-76.403,170.666-170.667C955.732,76.399,879.334,0,785.066,0C690.803,0,614.4,76.399,614.4,170.667
		c0,11.766,1.2,23.233,3.469,34.332L287.801,388.366c-30.6-28.966-71.665-47.032-117.135-47.032C76.403,341.333,0,417.733,0,512
		c0,94.264,76.403,170.667,170.667,170.667c45.47,0,86.535-18.07,117.135-47.068L617.87,818.998
		c-2.269,11.066-3.469,22.602-3.469,34.335c0,94.264,76.401,170.667,170.666,170.667c94.268,0,170.667-76.403,170.667-170.667
		C955.732,759.066,879.334,682.667,785.066,682.667z"/>
</g>
</svg>
