<?xml version="1.0" encoding="utf-8"?>
<!-- Generator: Adobe Illustrator 16.0.0, SVG Export Plug-In . SVG Version: 6.00 Build 0)  -->
<!DOCTYPE svg PUBLIC "-//W3C//DTD SVG 1.1//EN" "http://www.w3.org/Graphics/SVG/1.1/DTD/svg11.dtd">
<svg version="1.1" id="Layer_1" xmlns="http://www.w3.org/2000/svg" xmlns:xlink="http://www.w3.org/1999/xlink" x="0px" y="0px"
	 width="1024px" height="1024px" viewBox="0 0 1024 1024" enable-background="new 0 0 1024 1024" xml:space="preserve">
<g id="twitter">
	<path fill="#010202" d="M91.74,599.856c26.52,82.603,125.194,140.751,216.186,142.482
		c-71.125,55.757-160.804,88.979-258.355,88.979c-16.773,0-33.266-0.985-49.571-2.859c92.022,58.989,201.379,93.381,318.796,93.381
		c382.612,0,591.771-316.875,591.771-591.723c0-8.996,0.188-11.573-0.188-20.474c40.67-29.333,85.743-52.712,113.622-94.412
		c-37.296,16.539-110.67,19.538-152.745,24.597c42.918-25.769,87.29-89.679,102.845-138.219
		c-40.199,23.895-73.091,52.756-120.414,62.081C815.733,123.254,761.664,98,701.877,98c-114.886,0-208.033,93.147-208.033,207.986
		c0,16.304,1.874,32.189,5.436,47.416c-172.894-8.668-326.105-91.459-428.717-217.309c-17.898,30.736-36.405,80.214-36.405,118.306
		c0,50.838,101.58,144.593,188.026,185.028c11.432,5.341,5.669,13.401,17.102,16.493c-34.11-1.078-191.306-52.617-191.306-68.173
		c0,0.89,0,1.734,0,2.577c0,100.831,107.624,184.886,202.738,204.003C250.716,594.327,147.778,609.415,91.74,599.856z"/>
</g>
</svg>
