<?xml version="1.0" encoding="utf-8"?>
<!-- Generator: Adobe Illustrator 16.0.0, SVG Export Plug-In . SVG Version: 6.00 Build 0)  -->
<!DOCTYPE svg PUBLIC "-//W3C//DTD SVG 1.1//EN" "http://www.w3.org/Graphics/SVG/1.1/DTD/svg11.dtd">
<svg version="1.1" id="Layer_1" xmlns="http://www.w3.org/2000/svg" xmlns:xlink="http://www.w3.org/1999/xlink" x="0px" y="0px"
	 width="1024px" height="1024px" viewBox="0 0 1024 1024" enable-background="new 0 0 1024 1024" xml:space="preserve">
<g>
	<g>
		<g>
			<polygon points="398.233,0.158 398.233,56.774 341.343,56.774 341.343,113.389 284.452,113.389 284.452,170.003 227.562,170.003 
				227.562,226.621 0,226.621 0,509.697 227.562,509.697 227.562,566.312 284.452,566.312 284.452,622.929 341.343,622.929 
				341.343,679.544 398.233,679.544 398.233,736.158 455.124,736.158 455.124,0.158 			"/>
		</g>
		<g>
			<path stroke="#FFFFFF" stroke-miterlimit="10" d="M739.548,509.697"/>
			<path stroke="#FFFFFF" stroke-miterlimit="10" d="M1024,226.621"/>
			<path stroke="#FFFFFF" stroke-miterlimit="10" d="M739.548,226.621"/>
			<path stroke="#FFFFFF" stroke-miterlimit="10" d="M1024,509.697"/>
		</g>
	</g>
	<g>
		<path d="M669.019,536.207l-45.335-34.224c71.613-93.936,72.029-167.855,1.39-247.195l42.556-37.541
			C756.299,316.794,756.743,421.125,669.019,536.207z"/>
		<path d="M720.214,655.023l-34.001-45.392c92.947-68.918,140.865-151.629,138.561-239.234
			c-2.224-84.702-53.559-168.465-137.338-224.057l31.558-47.105C818.134,165,878.94,265.847,881.664,368.932
			C883.609,443.405,857.19,553.484,720.214,655.023z"/>
	</g>
</g>
</svg>
